<?xml version="1.0" encoding="UTF-8" standalone="no"?>
<!-- Created with Inkscape (http://www.inkscape.org/) -->

<svg
   version="1.1"
   id="svg1"
   width="967"
   height="319"
   viewBox="0 0 967 319"
   sodipodi:docname="haribo-logo-broken-transparent.svg"
   inkscape:version="1.4.2 (f4327f4, 2025-05-13)"
   xmlns:inkscape="http://www.inkscape.org/namespaces/inkscape"
   xmlns:sodipodi="http://sodipodi.sourceforge.net/DTD/sodipodi-0.dtd"
   xmlns="http://www.w3.org/2000/svg"
   xmlns:svg="http://www.w3.org/2000/svg">
  <defs
     id="defs1" />
  <sodipodi:namedview
     id="namedview1"
     pagecolor="#ffffff"
     bordercolor="#000000"
     borderopacity="0.25"
     inkscape:showpageshadow="2"
     inkscape:pageopacity="0.0"
     inkscape:pagecheckerboard="0"
     inkscape:deskcolor="#d1d1d1"
     showgrid="false"
     inkscape:zoom="1.07"
     inkscape:cx="582.24299"
     inkscape:cy="184.57944"
     inkscape:window-width="3440"
     inkscape:window-height="1369"
     inkscape:window-x="-8"
     inkscape:window-y="-8"
     inkscape:window-maximized="1"
     inkscape:current-layer="g1" />
  <g
     inkscape:groupmode="layer"
     inkscape:label="Image"
     id="g1">
    <path
       style="fill:#000000"
       d="m 893.93458,299.68693 c -0.825,-0.31152 -3.70762,-2.31002 -6.40582,-4.44111 -2.6982,-2.13109 -5.95266,-4.13745 -7.23213,-4.45858 l -2.32632,-0.58387 -3.09459,2.60393 -3.09459,2.60392 h -2.48902 c -3.67938,0 -7.3457,-2.27977 -14.14328,-8.79447 l -2.3941,-2.29447 0.75655,-1.70553 c 0.41611,-0.93804 0.67767,-3.2211 0.58125,-5.07346 l -0.1753,-3.36793 2.23932,-3.63207 c 1.23163,-1.99764 2.78545,-4.30707 3.45295,-5.13207 0.66749,-0.825 3.36233,-4.425 5.98854,-8 2.6262,-3.575 5.23878,-6.83125 5.80573,-7.2361 l 1.03081,-0.7361 7.56553,0.61449 7.56554,0.61449 4.76331,-2.10703 4.7633,-2.10704 2.98614,-3.19667 c 1.64238,-1.75817 3.7444,-4.58028 4.67116,-6.27136 l 1.68502,-3.07468 V 157.49446 81.07769 l -1.25,-0.41657 c -0.6875,-0.22912 -1.25,-0.99159 -1.25,-1.6944 0,-0.70281 -1.96784,-3.39096 -4.37297,-5.97367 l -4.37297,-4.69584 -5.37703,-1.43113 c -8.88186,-2.36396 -14.98462,-1.37979 -22.23023,3.58498 l -3.28839,2.25324 -2.60591,5.60346 -2.6059,5.60346 -1.07048,9 -1.07049,9 -0.003,63.75 -0.003,63.75 h -1 -1 v 1.5 1.5 h -1 c -0.55,0 -1,0.50972 -1,1.1327 0,0.62299 -0.79057,1.86049 -1.75683,2.75 -0.96625,0.88952 -2.35952,2.79356 -3.09614,4.23121 -0.73663,1.43764 -2.42105,3.7805 -3.74317,5.20635 -1.32212,1.42585 -2.40386,3.06209 -2.40386,3.6361 0,0.574 -0.45,1.04364 -1,1.04364 -0.55,0 -1,0.49303 -1,1.09563 0,0.6026 -0.93064,2.4026 -2.06809,4 l -2.0681,2.90437 h -2.48156 c -3.28674,0 -7.27998,-2.1461 -10.51197,-5.64947 -1.44635,-1.56779 -5.4237,-5.06356 -8.83857,-7.76838 l -6.20884,-4.91785 -0.87913,-2.31228 -0.87913,-2.31227 -0.59156,-44.26988 -0.59156,-44.26987 0.95273,-37 0.95273,-37 1.25607,-3.5 c 3.55346,-9.90161 5.36878,-14 6.20109,-14 0.41574,0 0.75589,-0.58745 0.75589,-1.30543 0,-1.1105 10.05821,-14.21703 12.04433,-15.69457 0.36966,-0.275 2.33058,-1.85 4.35761,-3.5 9.76566,-7.94925 21.27054,-13.40683 33.83309,-16.04944 l 6.89572,-1.45056 h 10.86925 10.86925 l 6.81537,1.44307 c 8.70687,1.84358 20.10836,6.56127 27.14543,11.23222 5.4334,3.60648 16.16995,13.40811 16.16995,14.7619 0,0.38297 1.5711,2.35377 3.49133,4.37956 l 3.49132,3.68325 0.009,1.69098 c 0.004,0.93004 0.45835,1.9691 1.00835,2.30902 0.55,0.33991 1,1.49147 1,2.55901 v 1.94099 h 1 1 v 2 2 h 1 1 v 1.94098 c 0,1.06754 0.38108,2.1765 0.84684,2.46435 l 0.84683,0.52338 0.79418,9.78564 0.79417,9.78565 0.10899,61.15725 0.10899,61.15725 -0.75867,15.84275 -0.75868,15.84275 -2.11801,4.5 c -1.1649,2.475 -2.57121,5.625 -3.12512,7 -2.27621,5.65035 -3.3075,7.64806 -5.4692,10.59439 -1.24867,1.70192 -2.27032,3.39331 -2.27032,3.75866 0,0.36535 -1.2375,2.12287 -2.75,3.90561 -10.50501,12.38194 -21.91271,19.57807 -39.19563,24.72515 -7.13731,2.12558 -7.66645,2.19357 -10.05437,1.2919 z M 33.434577,294.48998 c -2.0704,-0.88888 -5.21829,-4.30306 -7.05638,-7.65332 l -1.05637,-1.92544 0.42154,-24.27645 0.42153,-24.27645 1.63484,-0.86416 c 0.89916,-0.47529 5.8151,-1.45197 10.9243,-2.1704 l 9.28947,-1.30624 4.71053,1.25126 c 2.5908,0.68819 7.18554,2.46427 10.21054,3.94685 l 5.5,2.69559 0.5,3.4552 0.5,3.4552 4.79417,2.5448 4.79416,2.5448 -0.37569,16 -0.37568,16 -0.94081,3.40875 -0.94082,3.40876 -2.79746,2.09124 -2.79747,2.09125 -17.6802,0.21871 -17.6802,0.21871 z m 99.620153,-0.12969 -3.37985,-0.74959 -2.12935,-2.34974 c -1.17114,-1.29236 -2.9127,-3.57141 -3.87015,-5.06456 l -1.7408,-2.71481 V 229.9464 176.41122 l -1.25,-0.0965 c -0.6875,-0.0531 -10.43319,-0.0724 -21.657083,-0.0429 l -20.40708,0.0536 -0.95029,0.95029 -0.95029,0.95029 1.25193,7.00539 1.25194,7.0054 -1.11375,8.62784 -1.11374,8.62785 -1.30145,1.30145 c -2.32626,2.32622 -5.55807,3.61729 -9.0549,3.61729 h -3.42619 l -3.68396,-2.5 -3.68396,-2.5 h -2.32073 -2.32073 l -2.54259,2 c -1.39842,1.1 -3.19682,2 -3.99643,2 -2.08242,0 -18.50681,-7.82865 -18.90094,-9.0091 -0.18137,-0.5432 -0.10476,-40.12829 0.17024,-87.96687 l 0.5,-86.97923 2.71231,-2.71199 2.71232,-2.71199 18.78768,-0.29411 18.78769,-0.29411 2.5,1.01079 2.5,1.01078 2.29451,3.52679 2.29451,3.52678 -0.71781,41.19613 c -0.39479,22.65787 -0.74413,44.12113 -0.7763,47.69613 l -0.0585,6.5 h 21.9818 21.981793 l 0.2597,-48.40923 0.2597,-48.40922 1.11275,-1.34078 1.11274,-1.34077 h 2.78253 2.78254 l 2.73033,4.75 c 1.50168,2.6125 3.63204,5.74563 4.73412,6.96251 1.10208,1.21688 2.50369,3.19771 3.11469,4.40184 1.38971,2.73881 2.68934,3.45554 9.86024,5.43785 3.16213,0.87413 6.31213,2.13682 7,2.80599 2.19702,2.13729 8.15285,5.36186 11.25066,6.09126 1.65,0.3885 3.75089,1.38292 4.66864,2.20981 l 1.66863,1.50345 0.0631,111.41865 0.063,111.41864 h -0.98168 c -0.53992,0 -0.98223,0.5625 -0.9829,1.25 -6.7e-4,0.6875 -1.11167,2.5412 -2.46889,4.11933 l -2.46766,2.86933 -4.28112,0.35048 c -2.35461,0.19276 -9.45611,0.52126 -15.78111,0.73 l -11.5,0.37952 z m 69.37985,0.2746 c -1.1,-0.18472 -3.2375,-0.8152 -4.75,-1.40108 l -2.75,-1.06523 v -1.37868 c 0,-0.75827 -0.375,-1.37868 -0.83333,-1.37868 -0.77203,0 -1.08819,-1.10285 -1.21838,-4.25 -0.0284,-0.6875 0.85662,-5.525 1.9668,-10.75 1.11018,-5.225 2.03345,-10.93594 2.05171,-12.69098 l 0.0332,-3.19099 0.88951,-0.54974 c 0.48923,-0.30237 1.13172,-2.01642 1.42775,-3.80902 0.29602,-1.7926 1.04893,-5.28427 1.67312,-7.75927 1.18909,-4.71489 2.51687,-11.09139 3.5399,-17 0.3333,-1.925 0.98946,-4.4 1.45813,-5.5 0.46867,-1.1 1.10951,-3.575 1.42409,-5.5 0.31457,-1.925 1.05364,-5.525 1.64237,-8 0.58872,-2.475 1.45352,-6.525 1.92178,-9 0.46825,-2.475 1.59026,-8.325 2.49336,-13 0.90309,-4.675 1.89832,-9.85 2.21162,-11.5 0.3133,-1.65 0.90634,-3.45 1.31786,-4 0.41152,-0.55 1.05204,-3.1007 1.42338,-5.66823 l 0.67515,-4.66823 1.20099,-0.96512 1.20099,-0.96511 11.5,-0.43921 11.5,-0.4392 3.40593,-1.78377 c 1.87326,-0.98106 4.34826,-2.67913 5.5,-3.77347 2.86967,-2.72667 5.96029,-3.79766 10.95917,-3.79766 h 4.2349 l 1.10118,1.10118 1.10117,1.10117 -1.00309,3.14883 c -1.27014,3.98709 -2.77196,10.98367 -3.46636,16.14882 -0.29576,2.2 -0.94166,4.4275 -1.43533,4.95 l -0.89757,0.95 v 5.24098 5.24099 l -1,0.61803 -1,0.61803 v 3.24099 c 0,1.78254 -0.40942,3.66848 -0.90983,4.19098 -0.50041,0.5225 -1.06291,2.975 -1.25,5.45 l -0.34017,4.5 14,0.28751 c 7.7,0.15814 15.0125,0.0371 16.25,-0.26905 l 2.25,-0.55656 v -1.92194 c 0,-1.05706 -0.45,-2.20004 -1,-2.53996 l -1,-0.61803 v -4.44099 -4.44098 h -0.91467 -0.91468 l -0.51469,-6.25 c -0.28308,-3.4375 -1.01409,-8.95 -1.62445,-12.25 -0.61037,-3.3 -1.36325,-7.8 -1.67306,-10 -0.30982,-2.2 -0.96721,-4.4275 -1.46088,-4.95 -0.49366,-0.5225 -0.89757,-2.12 -0.89757,-3.55 0,-1.43 -0.42402,-3.0275 -0.94227,-3.55 l -0.94226,-0.95 -0.9853,-9.66899 c -0.54192,-5.31794 -0.75476,-10.55059 -0.47298,-11.6281 l 0.51232,-1.95911 2.4623,-1.1219 c 1.35426,-0.61705 3.77612,-1.1219 5.38191,-1.1219 h 2.91961 l 3.55408,3.55407 3.55407,3.55408 4.57653,1.37733 c 2.51709,0.75753 6.22025,2.48517 8.22926,3.83919 l 3.65273,2.46186 8,1.7157 c 4.4,0.94363 8.5625,2.17176 9.25,2.72918 l 1.25,1.01348 v 4.81854 4.81854 l 1,0.61803 1,0.61803 v 5.38197 5.38197 l 0.88951,0.54974 c 0.48923,0.30237 1.14303,2.01642 1.45288,3.80902 0.30985,1.7926 1.29437,6.85927 2.18783,11.25927 0.89346,4.4 2.0115,10.925 2.48455,14.5 1.21001,9.14456 2.0768,12.93856 3.10053,13.57126 l 0.8847,0.54677 v 3.38197 3.38197 l 1,0.61803 1,0.61803 v 4.38197 4.38197 l 1,0.61803 1,0.61803 v 5.38197 5.38197 l 0.89437,0.55275 c 0.4919,0.30401 1.13025,2.24306 1.41857,4.30901 0.28831,2.06595 1.02274,5.78127 1.63206,8.25627 1.66044,6.74454 4.1684,21.73401 4.73663,28.30979 l 0.50204,5.80979 -3.54227,3.44021 -3.54227,3.44021 h -15.92456 c -17.74569,0 -21.2116,-0.43121 -23.85531,-2.96793 -3.70184,-3.55204 -6.31926,-7.08914 -6.31926,-8.53968 0,-0.82081 -0.40082,-1.49239 -0.8907,-1.49239 h -0.8907 l -0.58685,-7.25 c -0.86896,-10.73519 -1.72721,-16.13422 -2.73418,-17.2 -0.49366,-0.5225 -0.89757,-1.985 -0.89757,-3.25 v -2.3 l -1.25,-0.13131 c -3.17624,-0.33364 -45.30428,0.39141 -45.71809,0.78684 -0.25745,0.24603 -0.78777,3.01167 -1.1785,6.14589 -1.44352,11.57928 -2.1395,15.25736 -2.98605,15.78056 l -0.86736,0.53605 v 3.94099 3.94098 h -1 -1 v 1.86364 1.86363 l -2.72922,2.72922 c -1.50106,1.50107 -3.86356,3.30896 -5.25,4.01753 l -2.52078,1.28832 -15,0.3986 c -8.25,0.21922 -15.9,0.24745 -17,0.0627 z m 181.96502,-0.79678 c -2.06743,-0.71075 -4.48033,-2.01313 -5.362,-2.89419 l -1.60302,-1.60192 -0.61222,-68.21539 c -0.33673,-37.51846 -0.84915,-73.27789 -1.13872,-79.46539 l -0.5265,-11.25 h 2.0745 2.07449 l 6.31423,6.50338 c 3.47282,3.57686 6.31729,6.83936 6.32105,7.25 0.0113,1.23234 6.21643,4.94158 10.49317,6.27249 6.82673,2.12445 11.11829,4.72628 17.42194,10.56234 l 6.07806,5.62722 v 1.39228 c 0,0.76576 0.45,1.39229 1,1.39229 h 1 v 1.8 c 0,0.99 0.38198,2.2275 0.84884,2.75 l 0.84884,0.95 -0.59884,39.5 c -0.32936,21.725 -0.37051,44.225 -0.0914,50 l 0.5074,10.5 -0.85067,6 -0.85068,6 -2.42578,3.20826 -2.42578,3.20826 -3.23095,0.49773 c -1.77702,0.27375 -9.59304,0.67935 -17.36895,0.90132 l -14.138,0.4036 z m 254.86111,0.31079 -3.85558,-0.76232 -2.5702,-4.25516 -2.57021,-4.25515 0.0849,-40.98252 0.085,-40.98253 2.54213,-0.29636 2.54213,-0.29637 3.73547,2.53496 c 2.0545,1.39422 4.96054,3.17639 6.45787,3.96037 1.49732,0.78398 4.1849,2.86751 5.9724,4.63007 l 3.25,3.20464 v 4.38135 4.38134 h 0.75589 c 0.80254,0 1.89464,2.417 4.74433,10.5 0.96952,2.75 2.1536,5.4275 2.63127,5.95 0.47768,0.5225 0.86851,1.76 0.86851,2.75 0,0.99 0.34015,1.8 0.75589,1.8 0.41574,0 1.372,1.3919 2.12503,3.09311 l 1.36915,3.09311 3.62496,-0.55534 c 1.99373,-0.30544 6.56454,-0.9541 10.15734,-1.44146 3.59281,-0.48736 7.50073,-1.40436 8.68426,-2.03777 4.19449,-2.24482 10.44542,-1.13246 14.08416,2.50629 1.57679,1.57678 4.81595,1.7712 5.69921,0.34206 l 0.61803,-1 h 2.45009 2.45008 l 3.2409,3.10104 c 1.7825,1.70557 4.54116,3.77458 6.13036,4.5978 l 2.88946,1.49676 5.12618,-0.64048 5.12617,-0.64047 1.98436,1.84317 c 1.0914,1.01373 2.6739,2.10622 3.51666,2.42774 l 1.53228,0.58458 5.35558,-0.8466 c 2.94556,-0.46563 7.75638,-1.84168 10.6907,-3.05789 l 5.33514,-2.21129 2.527,1.15138 2.52701,1.15138 v 2.67907 2.67907 l -3.93884,5.09237 c -2.16636,2.8008 -5.65386,6.74688 -7.75,8.76906 l -3.81116,3.6767 -9.79541,5.01183 -9.79542,5.01184 -5.70458,1.24033 -5.70459,1.24032 -41.15915,0.0711 -41.15914,0.0711 z m -158.47639,-0.86671 -2.65026,-0.97114 -2.59974,-3.92848 c -1.42986,-2.16066 -2.59974,-4.58656 -2.59974,-5.39089 0,-0.80434 -0.45,-1.74054 -1,-2.08046 l -1,-0.61803 v -2.88197 c 0,-1.58508 -0.40247,-3.1307 -0.89437,-3.43472 -0.4919,-0.30401 -1.10782,-2.24306 -1.36871,-4.30901 -1.09727,-8.68898 -3.87057,-21.05657 -5.77558,-25.75627 -0.8224,-2.02889 -1.38559,-4.40688 -2.96041,-12.5 -0.48161,-2.475 -1.33424,-6.525 -1.89474,-9 -1.40443,-6.20156 -1.51829,-5.76653 2.54125,-9.70889 l 3.64744,-3.54215 6.10256,0.6866 c 8.72675,0.98184 9.34459,0.91252 12.25208,-1.37452 l 2.6202,-2.06104 h 4.04953 c 2.22725,0 6.71965,-0.7492 9.98312,-1.66488 l 5.93358,-1.66488 1.11694,1.91488 c 0.9737,1.66932 2.27177,6.37698 4.25044,15.41488 0.30102,1.375 0.93552,3.4 1.40999,4.5 0.89515,2.07532 1.70528,6.60765 2.63647,14.75 l 0.54324,4.75 h 0.90348 0.90349 v 2.44098 2.44099 l 1,0.61803 1,0.61803 v 3.38197 3.38197 l 0.88951,0.54974 c 0.48923,0.30237 1.14232,2.01642 1.45131,3.80902 1.74086,10.09973 2.6588,14.63883 3.61988,17.89994 l 1.07293,3.64067 -0.91111,2.35933 c -1.15792,2.99842 -4.00198,6.21668 -6.80678,7.70235 l -2.18426,1.15698 -16.31574,-0.0789 -16.31574,-0.0789 z m 76.17082,0.013 c -3.52042,-1.4046 -5.94547,-3.81985 -8.12697,-8.09412 l -1.89359,-3.71017 V 179.13962 76.78834 l 2.16517,-2.32404 2.16518,-2.32404 8.08482,0.604 8.08483,0.604 10.05743,4.97527 10.05743,4.97528 2.82081,2.8062 c 1.55145,1.54341 3.91935,4.23964 5.262,5.99162 l 2.44118,3.18541 -0.0626,96.0673 -0.0626,96.0673 -1.17458,1.88081 c -0.64602,1.03444 -2.406,2.60822 -3.91107,3.49728 l -2.73658,1.61649 -15.34571,-0.0634 -15.34571,-0.0634 z m 178.47944,-44.32874 c -2.75,-0.7787 -6.70708,-2.1364 -8.79351,-3.01712 l -3.79351,-1.60131 -0.583,-1.51928 -0.58301,-1.51928 2.12652,-2.26357 c 1.16958,-1.24497 2.12651,-2.99551 2.12651,-3.8901 0,-0.8946 0.45,-1.90465 1,-2.24457 l 1,-0.61803 V 214.3522 196.41122 h -1 -1 v -2.5 -2.5 h -1 c -0.55,0 -1.00055,-0.5625 -1.00122,-1.25 -0.002,-1.78212 -3.82768,-5.81176 -8.55253,-9.00786 l -4.05375,-2.74214 h -14.19625 -14.19625 l -0.072,1.25 c -0.0396,0.6875 -0.12328,14.075 -0.18588,29.75 l -0.11382,28.5 -1.30391,1.31121 c -0.71715,0.72117 -2.83285,1.55933 -4.70155,1.86258 l -3.39764,0.55136 -2.11258,-2.11258 -2.11262,-2.11257 v -2.94098 -2.94099 l -0.97101,-0.60011 -0.97101,-0.60012 -0.65782,-4.9589 -0.65782,-4.9589 h -0.87117 -0.87117 v -2.5 -2.5 h -1 -1 v -2.1327 -2.13271 l -2.15301,-1.86729 c -1.18416,-1.02702 -2.93893,-1.8673 -3.89951,-1.8673 -0.96058,0 -4.08127,-1.57118 -6.93487,-3.49152 -2.85361,-1.92033 -7.51133,-4.65587 -10.35049,-6.07898 -2.83917,-1.42311 -5.94962,-3.29667 -6.91212,-4.16347 l -1.75,-1.57601 V 140.6606 89.21996 l 2.05029,-2.87937 2.05029,-2.87937 3.69971,-0.94523 c 2.03484,-0.51988 6.17471,-1.22061 9.19971,-1.55718 3.025,-0.33657 9.44159,-1.58289 14.2591,-2.76961 l 8.7591,-2.15767 2.7409,0.96392 2.7409,0.96393 3.5,4.72844 3.5,4.72845 v 22.91182 22.91182 l 0.73163,0.73395 0.73162,0.73395 12.9747,-0.10569 12.97469,-0.10569 4.00054,-2.04092 4.00054,-2.04092 2.79314,-4.74926 c 1.53623,-2.61209 3.34886,-6.32535 4.02808,-8.25169 l 1.23495,-3.50242 0.015,-13.19099 0.0151,-13.19098 -1,-0.61803 -1,-0.61804 V 83.8522 81.41122 h -1 c -0.55,0 -1,-0.4539 -1,-1.00866 0,-0.55476 -1.2375,-2.41687 -2.75,-4.13801 l -2.75,-3.12935 -4,-1.84003 -4,-1.84003 -9.88197,-0.022 -9.88196,-0.022 -3.11804,-1.87382 -3.11803,-1.87382 -11,-0.69856 c -22.71152,-1.44231 -37.00312,-2.39509 -37.09699,-2.47315 -0.0533,-0.0444 -1.06584,-0.92094 -2.25,-1.94795 l -2.15301,-1.8673 V 45.7432 32.80986 l 1.17683,-2.49367 c 0.64725,-1.37152 2.21755,-3.2787 3.48955,-4.23817 l 2.31273,-1.7445 41.76044,0.0911 41.76045,0.0911 7,0.86026 c 9.51213,1.16899 15.64313,3.22536 22.88997,7.67742 8.61358,5.29171 15.67183,12.95083 19.68225,21.35782 1.18066,2.475 2.54741,5.28139 3.03722,6.23643 0.48981,0.95503 0.89056,2.55253 0.89056,3.55 0,0.99746 0.5625,2.37593 1.25,3.06326 l 1.25,1.2497 v 24.89901 24.89901 l -1.25,1.2513 c -0.6875,0.68821 -1.25,2.25973 -1.25,3.49227 0,1.23254 -0.45,2.5191 -1,2.85902 l -1,0.61803 v 2.44099 2.44098 h -1 c -0.55,0 -1,0.57566 -1,1.27924 0,0.70358 -0.9,1.92792 -2,2.72076 -1.1,0.79284 -2,1.8603 -2,2.37215 0,0.51185 -2.475,3.36643 -5.5,6.34352 l -5.5,5.41288 v 2.26836 2.26836 l 4.24431,3.41082 c 4.93895,3.96905 9.6253,9.07138 11.75569,12.79918 0.825,1.4436 1.78534,2.84973 2.13409,3.12473 0.34875,0.275 1.53863,2.1164 2.64417,4.092 l 2.01008,3.59199 1.60583,7.76497 1.60583,7.76497 v 21.23805 21.23804 l -1.86733,1.68992 -1.86733,1.68991 -14.29356,3.50626 c -7.86145,1.92844 -16.13366,3.70621 -18.38267,3.9506 l -4.08911,0.44434 z m -262.84541,-58.05523 -4.31176,-4.5 h -3.1124 -3.1124 l -0.61803,1 -0.61803,1 h -2.49065 c -3.02873,0 -7.55017,-2.23511 -12.89132,-6.37263 -6.13235,-4.75043 -8.5,-7.92393 -8.5,-11.39304 v -1.79281 l -2,-1.44152 c -1.1,-0.79284 -2,-1.94743 -2,-2.56577 0,-0.61834 -0.90276,-1.94124 -2.00613,-2.93978 -1.10337,-0.99854 -1.79739,-2.02426 -1.54226,-2.27939 0.25513,-0.25513 -1.03951,-1.92386 -2.87697,-3.70828 l -3.34085,-3.24441 -9.8669,-3.22532 -9.86689,-3.22532 -4.75,-3.01011 -4.75,-3.01011 v -1.39576 c 0,-0.76766 -0.45,-1.39575 -1,-1.39575 -0.55,0 -1,-0.49446 -1,-1.09879 0,-0.60433 -1.35,-2.35988 -3,-3.90121 l -3,-2.80242 v -2.66453 c 0,-2.87148 -1.62401,-6.58208 -3.3997,-7.76774 -0.60517,-0.40408 -2.1128,-0.74158 -3.3503,-0.75 l -2.25,-0.0153 0.0222,-44.25 0.0222,-44.25 1.92232,-2.5 1.92233,-2.5 46.30544,0.003 46.30544,0.003 6,1.83353 c 3.3,1.00844 8.475,3.21413 11.5,4.90153 l 5.5,3.068 6.25,6.43566 6.25,6.43565 v 1.40966 c 7e-5,0.77522 0.45007,1.40957 1.00007,1.40957 h 1 v 1.5 1.5 h 1 1 v 1.94098 c 0,1.06754 0.45,2.2191 1,2.55902 l 1,0.61803 v 2.74098 c 0,1.50754 0.40391,3.16849 0.89757,3.69099 1.60211,1.69568 2.31567,9.5635 2.75344,30.35967 l 0.42963,20.40969 -1.04032,1.04032 -1.04032,1.04032 v 3.24098 3.24099 l -1,0.61803 c -0.55,0.33992 -1,1.44895 -1,2.46452 0,1.99619 -4.02218,10.32312 -5.25,10.86881 -0.4125,0.18334 -0.75,0.89415 -0.75,1.57959 0,0.68544 -2.4196,3.91044 -5.3769,7.16667 l -5.3769,5.92041 -5.61038,3.5 -5.61038,3.5 -0.0127,2.12756 -0.0127,2.12755 1.3998,1.16173 c 0.76989,0.63896 2.38512,3.73156 3.58938,6.87245 1.20427,3.14089 3.04936,7.44074 4.1002,9.55521 1.05084,2.11448 1.91062,4.16531 1.91062,4.5574 0,0.39209 -3.5409,2.59957 -7.86867,4.9055 l -7.86871,4.1926 h -2.64815 -2.64816 z m -15.95174,-64.78853 3.20286,-1.71407 3.29714,-4.7487 3.29715,-4.7487 0.35318,-12.85717 0.35318,-12.85717 -1.7388,-5.52811 -1.7388,-5.5281 -3.11438,-2.85542 -3.11438,-2.85542 -3.5,-1.06889 -3.5,-1.0689 -10.5,0.30959 -10.5,0.30959 -0.23837,27.5 c -0.1311,15.125 -0.0146,28.10978 0.25893,28.85506 l 0.4973,1.35507 11.74107,-0.39229 11.74107,-0.39229 z m -234.70285,22.84755 v -2.44099 l 1,-0.61803 1,-0.61803 v -4.38197 -4.38197 l 1,-0.61803 1,-0.61803 v -3.49065 -3.49064 l 1.46301,-2.82916 c 1.6394,-3.17023 3.33488,-4.07152 7.65927,-4.07152 h 2.95871 l 2.7095,1.81517 c 1.49023,0.99834 4.13703,2.78595 5.88177,3.97246 1.74475,1.18652 6.91975,3.91588 11.5,6.06525 4.58026,2.14937 9.22774,4.60646 10.32774,5.46021 l 2,1.55227 -1.25532,1.27264 -1.25532,1.27264 -5.74468,-1.31123 c -3.15957,-0.72117 -6.98475,-1.54002 -8.50039,-1.81965 l -2.7557,-0.50843 -3.40269,2.59535 c -1.87147,1.42745 -7.00431,4.1789 -11.40629,6.11434 l -8.00361,3.51898 h -3.088 -3.088 z m 102,-16.38323 c -0.825,-0.37168 -4.5375,-2.62863 -8.25,-5.01543 l -6.75,-4.33964 v -1.32147 -1.32146 l -3.25,-2.60397 c -4.65489,-3.7296 -4.62115,-3.70534 -11.61395,-8.34835 -3.50018,-2.32401 -6.88322,-4.22547 -7.51787,-4.22547 -0.63465,0 -2.86662,-1.16382 -4.95993,-2.58626 l -3.80603,-2.58626 0.50702,-1.32127 0.50702,-1.32127 -3.79518,-3.84247 C 272.91831,91.64033 266.9859,86.01311 261.82253,81.24875 256.65916,76.48439 249.84708,70.1769 246.68458,67.2321 l -5.75,-5.3542 0.021,-2.48334 0.021,-2.48334 9.22902,-8.56427 c 9.56905,-8.87984 11.69576,-10.26945 14.22898,-9.29736 l 1.5,0.5756 v 1.39301 c 0,0.76616 0.45,1.39302 1,1.39302 0.55,0 1,0.42193 1,0.93763 0,0.51571 1.6875,3.38823 3.75,6.3834 l 3.75,5.44576 3.5,2.35768 c 4.26073,2.87012 4.96499,3.78158 4.98469,6.45121 l 0.0153,2.07569 2.25,2.01187 c 1.2375,1.10653 4.13185,2.96177 6.43188,4.12276 l 4.18189,2.11089 4.09324,4.44064 4.09324,4.44064 3.22487,1.1885 c 1.77369,0.65367 5.12594,2.04218 7.44947,3.08557 l 4.22458,1.89707 0.43472,2.27534 c 0.2391,1.25144 0.95589,4.52535 1.59287,7.27535 1.8827,8.12802 3.10837,14.7046 3.63421,19.5 0.2714,2.475 0.9569,5.43944 1.52333,6.58764 l 1.02988,2.08765 -0.33209,2.83523 -0.33209,2.83524 -1,0.25291 c -0.55,0.1391 -1.675,-0.0512 -2.5,-0.42288 z m -18.8493,-69.68556 c -2.94211,-1.36963 -5.97961,-2.49023 -6.75,-2.49023 -0.77038,0 -2.24043,-0.83974 -3.26678,-1.86608 l -1.86607,-1.86608 0.4672,-4.88392 0.4672,-4.88392 -2.99702,-3.13197 c -1.64837,-1.72258 -3.60637,-3.37782 -4.35113,-3.67831 l -1.3541,-0.54634 3.1559,-2.82169 c 1.73575,-1.55193 5.21607,-4.08978 7.73404,-5.63966 l 4.57814,-2.81796 2.76596,0.31796 2.76596,0.31797 0.7859,5 c 0.43224,2.75 1.02029,6.8 1.30676,9 0.28647,2.2 0.90775,4.9 1.38062,6 0.47287,1.1 1.37092,4.8173 1.99566,8.26067 l 1.1359,6.26067 -0.61143,0.98933 c -0.8541,1.38195 -1.31149,1.28724 -7.34271,-1.52044 z m 259.8493,-4.97495 -4.5,-1.45103 -5.22999,-4.59217 c -2.87649,-2.52569 -5.17879,-4.90265 -5.11622,-5.28212 0.24287,-1.47288 -1.45741,-7.25958 -2.28295,-7.76979 l -0.87084,-0.53821 v -5.41135 -5.41134 l 2.42588,-5.27964 c 3.01863,-6.56966 5.71109,-9.48363 10.9691,-11.87147 l 4.10502,-1.8642401 9.12405,-0.022 9.12404,-0.022 4.61397,2.5787901 4.61397,2.57879 1.79802,2.67121 c 2.23449,3.31963 3.65519,6.51699 5.18595,11.67121 l 1.18797,4 -1.07399,2.8151 c -0.59069,1.5483 -1.07398,3.85936 -1.07398,5.13569 0,5.11274 -7.04566,13.90331 -13.70705,17.1017 l -3.79295,1.82115 -5.5,0.29634 -5.5,0.29634 z m -399.6736,-7.56206 c -2.29548,-0.45257 -5.49562,-1.50649 -7.11141,-2.34205 -1.6158,-0.83556 -5.92544,-2.26967 -9.57697,-3.1869 l -6.63916,-1.66771 0.16554,-4.12828 c 0.091,-2.27056 -0.18563,-5.56918 -0.61483,-7.33027 l -0.78036,-3.20198 2.74647,-0.68932 2.74647,-0.68932 5.61892,1.74597 c 3.09041,0.96029 7.19393,2.66191 9.11893,3.78138 6.30297,3.66545 11.47762,7.2277 12.7182,8.75526 l 1.21819,1.5 0.0318,3.75 0.0318,3.75 h -1.41821 c -0.78002,0 -2.01752,0.17461 -2.75,0.38803 -0.73249,0.21342 -3.20991,0.0178 -5.50539,-0.43481 z"
       id="path1" />
  </g>
</svg>
